<svg width="39" height="40" viewBox="0 0 39 40" fill="none" xmlns="http://www.w3.org/2000/svg">
<rect width="38.6744" height="40" rx="4" fill="#FEFEFE"/>
<path d="M21.1577 12.2197C21.5856 12.2197 21.983 12.2592 22.3497 12.3383C22.9259 12.4624 23.2053 13.072 23.0329 13.6357L22.6451 14.904C22.5629 15.1728 22.2551 15.301 21.983 15.2307C21.8149 15.1833 21.6009 15.1596 21.3411 15.1596C20.898 15.1596 20.5465 15.3097 20.2867 15.61C20.0269 15.8945 19.897 16.2975 19.897 16.8191C19.897 17.3429 20.3216 17.7675 20.8453 17.7675H21.3659C22.0991 17.7675 22.6936 18.3619 22.6936 19.0951C22.6936 19.8284 22.0991 20.4228 21.3659 20.4228H21.2953C20.523 20.4228 19.897 21.0488 19.897 21.8211V27.8831C19.897 28.7123 19.2248 29.3845 18.3956 29.3845C17.5664 29.3845 16.8941 28.7123 16.8941 27.8831V21.4314C16.8941 20.8744 16.4426 20.4228 15.8855 20.4228C15.3285 20.4228 14.877 19.9712 14.877 19.4142V18.7761C14.877 18.219 15.3285 17.7675 15.8855 17.7675C16.4426 17.7675 16.8941 17.3159 16.8941 16.7589V16.6295C16.8941 15.9182 16.9935 15.2939 17.1921 14.7565C17.4061 14.2033 17.7041 13.745 18.0861 13.3814C18.4682 13.0021 18.919 12.7176 19.4386 12.5279C19.9581 12.3225 20.5312 12.2197 21.1577 12.2197Z" fill="#111827"/>
</svg>
