<svg width="40" height="40" viewBox="0 0 40 40" fill="none" xmlns="http://www.w3.org/2000/svg">
<rect width="39.1594" height="40" rx="4" fill="#FEFEFE"/>
<g clip-path="url(#clip0_275_1605)">
<path d="M27.6822 16.5834C27.6441 15.7022 27.5046 15.0963 27.3048 14.5714C27.0986 14.0141 26.7814 13.5152 26.3659 13.1005C25.9598 12.6793 25.4682 12.352 24.929 12.1447C24.4121 11.9405 23.822 11.798 22.9593 11.7592C22.0901 11.717 21.8142 11.7073 19.6098 11.7073C17.4053 11.7073 17.1294 11.717 16.2634 11.7559C15.4007 11.7947 14.8076 11.9374 14.2938 12.1414C13.7481 12.352 13.2597 12.676 12.8537 13.1005C12.4413 13.5152 12.121 14.0174 11.9179 14.5682C11.7181 15.0963 11.5786 15.6989 11.5405 16.5801C11.4993 17.468 11.4897 17.7498 11.4897 20.0016C11.4897 22.2534 11.4993 22.5352 11.5373 23.4197C11.5754 24.301 11.715 24.9068 11.9149 25.4318C12.121 25.9891 12.4413 26.488 12.8537 26.9027C13.2597 27.3239 13.7513 27.6512 14.2905 27.8585C14.8076 28.0626 15.3975 28.2051 16.2603 28.244C17.1261 28.283 17.4022 28.2926 19.6067 28.2926C21.8111 28.2926 22.087 28.283 22.953 28.244C23.8157 28.2051 24.4088 28.0626 24.9226 27.8585C26.0138 27.4275 26.8766 26.5463 27.2985 25.4318C27.4982 24.9037 27.6378 24.301 27.6759 23.4197C27.7139 22.5352 27.7234 22.2534 27.7234 20.0016C27.7234 17.7498 27.7202 17.468 27.6822 16.5834ZM26.22 23.3549C26.1851 24.1649 26.0519 24.6023 25.9409 24.8939C25.668 25.6165 25.1066 26.1899 24.3993 26.4686C24.1138 26.582 23.6825 26.718 22.8926 26.7536C22.0362 26.7926 21.7794 26.8022 19.613 26.8022C17.4466 26.8022 17.1865 26.7926 16.3332 26.7536C15.5402 26.718 15.112 26.582 14.8265 26.4686C14.4745 26.3357 14.1541 26.1251 13.8941 25.8497C13.6244 25.5808 13.4183 25.2568 13.2882 24.8972C13.1772 24.6056 13.044 24.1649 13.0091 23.3582C12.971 22.4834 12.9616 22.221 12.9616 20.008C12.9616 17.7951 12.971 17.5295 13.0091 16.658C13.044 15.848 13.1772 15.4106 13.2882 15.119C13.4183 14.7593 13.6244 14.4321 13.8973 14.1664C14.1604 13.891 14.4776 13.6804 14.8298 13.5476C15.1152 13.4342 15.5467 13.2981 16.3364 13.2625C17.1928 13.2236 17.4498 13.2139 19.6161 13.2139C21.7857 13.2139 22.0426 13.2236 22.8959 13.2625C23.6888 13.2981 24.117 13.4342 24.4025 13.5476C24.7545 13.6804 25.0749 13.891 25.335 14.1664C25.6046 14.4353 25.8108 14.7593 25.9409 15.119C26.0519 15.4106 26.1851 15.8511 26.22 16.658C26.2581 17.5328 26.2676 17.7951 26.2676 20.008C26.2676 22.221 26.2581 22.4801 26.22 23.3549Z" fill="#111827"/>
<path d="M19.61 15.741C17.3073 15.741 15.439 17.6493 15.439 20.0015C15.439 22.3538 17.3073 24.2621 19.61 24.2621C21.9128 24.2621 23.781 22.3538 23.781 20.0015C23.781 17.6493 21.9128 15.741 19.61 15.741ZM19.61 22.7652C18.1161 22.7652 16.9043 21.5276 16.9043 20.0015C16.9043 18.4754 18.1161 17.2378 19.61 17.2378C21.104 17.2378 22.3156 18.4754 22.3156 20.0015C22.3156 21.5276 21.104 22.7652 19.61 22.7652Z" fill="#111827"/>
<path d="M24.9198 15.5725C24.9198 16.1218 24.4838 16.5672 23.9459 16.5672C23.4082 16.5672 22.9722 16.1218 22.9722 15.5725C22.9722 15.0231 23.4082 14.5779 23.9459 14.5779C24.4838 14.5779 24.9198 15.0231 24.9198 15.5725Z" fill="#111827"/>
</g>
<defs>
<clipPath id="clip0_275_1605">
<rect x="11.4614" y="11.7073" width="16.2368" height="16.5854" rx="4" fill="white"/>
</clipPath>
</defs>
</svg>
