<svg width="40" height="41" viewBox="0 0 40 41" fill="none" xmlns="http://www.w3.org/2000/svg">
<path d="M24.5 32.2812C24.9 32.2812 25.25 32.1281 25.55 31.8219C25.85 31.5156 26 31.1583 26 30.75C26 30.3417 25.85 29.9844 25.55 29.6781C25.25 29.3719 24.9 29.2187 24.5 29.2187C24.1 29.2187 23.75 29.3719 23.45 29.6781C23.15 29.9844 23 30.3417 23 30.75C23 31.1583 23.15 31.5156 23.45 31.8219C23.75 32.1281 24.1 32.2812 24.5 32.2812ZM30 32.2812C30.4 32.2812 30.75 32.1281 31.05 31.8219C31.35 31.5156 31.5 31.1583 31.5 30.75C31.5 30.3417 31.35 29.9844 31.05 29.6781C30.75 29.3719 30.4 29.2187 30 29.2187C29.6 29.2187 29.25 29.3719 28.95 29.6781C28.65 29.9844 28.5 30.3417 28.5 30.75C28.5 31.1583 28.65 31.5156 28.95 31.8219C29.25 32.1281 29.6 32.2812 30 32.2812ZM35.5 32.2812C35.9 32.2812 36.25 32.1281 36.55 31.8219C36.85 31.5156 37 31.1583 37 30.75C37 30.3417 36.85 29.9844 36.55 29.6781C36.25 29.3719 35.9 29.2187 35.5 29.2187C35.1 29.2187 34.75 29.3719 34.45 29.6781C34.15 29.9844 34 30.3417 34 30.75C34 31.1583 34.15 31.5156 34.45 31.8219C34.75 32.1281 35.1 32.2812 35.5 32.2812ZM4 36.875C2.9 36.875 1.95867 36.4755 1.176 35.6765C0.393333 34.8776 0.00133333 33.9159 0 32.7917V4.20833C0 3.08542 0.392 2.12447 1.176 1.3255C1.96 0.526528 2.90133 0.126361 4 0.125H32C33.1 0.125 34.042 0.525167 34.826 1.3255C35.61 2.12583 36.0013 3.08678 36 4.20833V17.8875C35.3667 17.5812 34.7167 17.3179 34.05 17.0974C33.3833 16.8769 32.7 16.7149 32 16.6115V4.20833H4V32.7917H16.1C16.2 33.5403 16.3587 34.2549 16.576 34.9354C16.7933 35.616 17.0513 36.2625 17.35 36.875H4ZM4 30.75V32.7917V4.20833V16.6115V16.4583V30.75ZM8 28.7083H16.15C16.25 27.9937 16.4087 27.2962 16.626 26.6156C16.8433 25.9351 17.0847 25.2715 17.35 24.625H8V28.7083ZM8 20.5417H20.2C21.2667 19.5208 22.4587 18.6701 23.776 17.9896C25.0933 17.309 26.5013 16.8497 28 16.6115V16.4583H8V20.5417ZM8 12.375H28V8.29167H8V12.375ZM30 40.9583C27.2333 40.9583 24.8753 39.9627 22.926 37.9714C20.9767 35.9801 20.0013 33.5729 20 30.75C19.9987 27.9271 20.974 25.5199 22.926 23.5286C24.878 21.5373 27.236 20.5417 30 20.5417C32.764 20.5417 35.1227 21.5373 37.076 23.5286C39.0293 25.5199 40.004 27.9271 40 30.75C39.996 33.5729 39.0207 35.9807 37.074 37.9734C35.1273 39.9661 32.7693 40.9611 30 40.9583Z" fill="#6929C4"/>
</svg>
