<svg width="42" height="40" viewBox="0 0 42 40" fill="none" xmlns="http://www.w3.org/2000/svg">
<path d="M9.103 1.61719H3.5C2.39543 1.61719 1.5 2.51262 1.5 3.61719V31.4592C1.5 32.5638 2.39543 33.4592 3.5 33.4592H9.103C10.2076 33.4592 11.103 32.5638 11.103 31.4592V3.61719C11.103 2.51262 10.2076 1.61719 9.103 1.61719Z" stroke="#6929C4" stroke-width="2" stroke-linecap="round" stroke-linejoin="round"/>
<path d="M20.167 1.61719H14.564C13.4594 1.61719 12.564 2.51262 12.564 3.61719V31.4592C12.564 32.5638 13.4594 33.4592 14.564 33.4592H20.167C21.2716 33.4592 22.167 32.5638 22.167 31.4592V3.61719C22.167 2.51262 21.2716 1.61719 20.167 1.61719Z" stroke="#6929C4" stroke-width="2" stroke-linecap="round" stroke-linejoin="round"/>
<path d="M29.763 1.21631L24.4022 2.84568C23.3454 3.16689 22.749 4.28401 23.0702 5.34085L31.1667 31.9796C31.488 33.0364 32.6051 33.6328 33.6619 33.3116L39.0228 31.6822C40.0796 31.361 40.6759 30.2439 40.3547 29.187L32.2582 2.54827C31.937 1.49144 30.8199 0.895099 29.763 1.21631Z" stroke="#6929C4" stroke-width="2" stroke-linecap="round" stroke-linejoin="round"/>
<path d="M38.5 34.043H3.5C2.39543 34.043 1.5 34.9384 1.5 36.043V36.871C1.5 37.9755 2.39543 38.871 3.5 38.871H38.5C39.6046 38.871 40.5 37.9755 40.5 36.871V36.043C40.5 34.9384 39.6046 34.043 38.5 34.043Z" stroke="#6929C4" stroke-width="2" stroke-linecap="round" stroke-linejoin="round"/>
</svg>
