<svg width="222" height="55" viewBox="0 0 222 55" fill="none" xmlns="http://www.w3.org/2000/svg">
<path d="M42.132 15.62V21.236H35.364V41H28.308V21.236H21.612V15.62H42.132ZM51.7986 24.368C52.5906 23.216 53.5506 22.304 54.6786 21.632C55.8066 20.96 57.0186 20.624 58.3146 20.624V28.148H56.3346C54.7986 28.148 53.6586 28.448 52.9146 29.048C52.1706 29.648 51.7986 30.692 51.7986 32.18V41H44.7426V20.804H51.7986V24.368ZM59.6921 30.884C59.6921 28.796 60.0641 26.972 60.8081 25.412C61.5761 23.852 62.6081 22.652 63.9041 21.812C65.2241 20.972 66.6881 20.552 68.2961 20.552C69.6881 20.552 70.8881 20.828 71.8961 21.38C72.9041 21.932 73.6841 22.676 74.2361 23.612V20.804H81.2921V41H74.2361V38.192C73.6841 39.128 72.8921 39.872 71.8601 40.424C70.8521 40.976 69.6641 41.252 68.2961 41.252C66.6881 41.252 65.2241 40.832 63.9041 39.992C62.6081 39.152 61.5761 37.952 60.8081 36.392C60.0641 34.808 59.6921 32.972 59.6921 30.884ZM74.2361 30.884C74.2361 29.588 73.8761 28.568 73.1561 27.824C72.4601 27.08 71.5961 26.708 70.5641 26.708C69.5081 26.708 68.6321 27.08 67.9361 27.824C67.2401 28.544 66.8921 29.564 66.8921 30.884C66.8921 32.18 67.2401 33.212 67.9361 33.98C68.6321 34.724 69.5081 35.096 70.5641 35.096C71.5961 35.096 72.4601 34.724 73.1561 33.98C73.8761 33.236 74.2361 32.204 74.2361 30.884ZM98.5249 20.624C100.853 20.624 102.701 21.404 104.069 22.964C105.437 24.5 106.121 26.588 106.121 29.228V41H99.0649V30.164C99.0649 29.012 98.7649 28.112 98.1649 27.464C97.5649 26.792 96.7609 26.456 95.7529 26.456C94.6969 26.456 93.8689 26.792 93.2689 27.464C92.6689 28.112 92.3689 29.012 92.3689 30.164V41H85.3129V20.804H92.3689V23.684C92.9929 22.772 93.8329 22.04 94.8889 21.488C95.9449 20.912 97.1569 20.624 98.5249 20.624ZM118.597 41.252C116.773 41.252 115.141 40.952 113.701 40.352C112.285 39.728 111.157 38.888 110.317 37.832C109.501 36.752 109.045 35.54 108.949 34.196H115.789C115.885 34.844 116.185 35.348 116.689 35.708C117.193 36.068 117.817 36.248 118.561 36.248C119.137 36.248 119.593 36.128 119.929 35.888C120.265 35.648 120.433 35.336 120.433 34.952C120.433 34.448 120.157 34.076 119.605 33.836C119.053 33.596 118.141 33.332 116.869 33.044C115.429 32.756 114.229 32.432 113.269 32.072C112.309 31.712 111.469 31.124 110.749 30.308C110.053 29.492 109.705 28.388 109.705 26.996C109.705 25.796 110.029 24.716 110.677 23.756C111.325 22.772 112.273 21.992 113.521 21.416C114.793 20.84 116.317 20.552 118.093 20.552C120.733 20.552 122.809 21.2 124.321 22.496C125.833 23.792 126.709 25.496 126.949 27.608H120.577C120.457 26.96 120.169 26.468 119.713 26.132C119.281 25.772 118.693 25.592 117.949 25.592C117.373 25.592 116.929 25.7 116.617 25.916C116.329 26.132 116.185 26.432 116.185 26.816C116.185 27.296 116.461 27.668 117.013 27.932C117.565 28.172 118.453 28.424 119.677 28.688C121.141 29 122.353 29.348 123.313 29.732C124.297 30.116 125.149 30.74 125.869 31.604C126.613 32.444 126.985 33.596 126.985 35.06C126.985 36.236 126.637 37.292 125.941 38.228C125.269 39.164 124.297 39.908 123.025 40.46C121.777 40.988 120.301 41.252 118.597 41.252ZM129.302 30.884C129.302 28.796 129.734 26.972 130.598 25.412C131.462 23.852 132.662 22.652 134.198 21.812C135.758 20.972 137.534 20.552 139.526 20.552C142.094 20.552 144.254 21.26 146.006 22.676C147.758 24.068 148.886 26.024 149.39 28.544H141.902C141.47 27.224 140.63 26.564 139.382 26.564C138.494 26.564 137.786 26.936 137.258 27.68C136.754 28.4 136.502 29.468 136.502 30.884C136.502 32.3 136.754 33.38 137.258 34.124C137.786 34.868 138.494 35.24 139.382 35.24C140.654 35.24 141.494 34.58 141.902 33.26H149.39C148.886 35.756 147.758 37.712 146.006 39.128C144.254 40.544 142.094 41.252 139.526 41.252C137.534 41.252 135.758 40.832 134.198 39.992C132.662 39.152 131.462 37.952 130.598 36.392C129.734 34.832 129.302 32.996 129.302 30.884ZM171.617 30.668C171.617 31.22 171.581 31.772 171.509 32.324H158.153C158.225 33.428 158.525 34.256 159.053 34.808C159.605 35.336 160.301 35.6 161.141 35.6C162.317 35.6 163.157 35.072 163.661 34.016H171.185C170.873 35.408 170.261 36.656 169.349 37.76C168.461 38.84 167.333 39.692 165.965 40.316C164.597 40.94 163.085 41.252 161.429 41.252C159.437 41.252 157.661 40.832 156.101 39.992C154.565 39.152 153.353 37.952 152.465 36.392C151.601 34.832 151.169 32.996 151.169 30.884C151.169 28.772 151.601 26.948 152.465 25.412C153.329 23.852 154.529 22.652 156.065 21.812C157.625 20.972 159.413 20.552 161.429 20.552C163.421 20.552 165.185 20.96 166.721 21.776C168.257 22.592 169.457 23.768 170.321 25.304C171.185 26.816 171.617 28.604 171.617 30.668ZM164.417 28.904C164.417 28.04 164.129 27.368 163.553 26.888C162.977 26.384 162.257 26.132 161.393 26.132C160.529 26.132 159.821 26.372 159.269 26.852C158.717 27.308 158.357 27.992 158.189 28.904H164.417ZM187.716 20.624C190.044 20.624 191.892 21.404 193.26 22.964C194.628 24.5 195.312 26.588 195.312 29.228V41H188.256V30.164C188.256 29.012 187.956 28.112 187.356 27.464C186.756 26.792 185.952 26.456 184.944 26.456C183.888 26.456 183.06 26.792 182.46 27.464C181.86 28.112 181.56 29.012 181.56 30.164V41H174.504V20.804H181.56V23.684C182.184 22.772 183.024 22.04 184.08 21.488C185.136 20.912 186.348 20.624 187.716 20.624ZM198.032 30.884C198.032 28.796 198.404 26.972 199.148 25.412C199.916 23.852 200.96 22.652 202.28 21.812C203.6 20.972 205.064 20.552 206.672 20.552C207.968 20.552 209.12 20.828 210.128 21.38C211.16 21.908 211.964 22.64 212.54 23.576V14.36H219.632V41H212.54V38.192C211.988 39.128 211.208 39.872 210.2 40.424C209.192 40.976 208.004 41.252 206.636 41.252C205.028 41.252 203.564 40.832 202.244 39.992C200.948 39.152 199.916 37.952 199.148 36.392C198.404 34.808 198.032 32.972 198.032 30.884ZM212.576 30.884C212.576 29.588 212.216 28.568 211.496 27.824C210.8 27.08 209.936 26.708 208.904 26.708C207.848 26.708 206.972 27.08 206.276 27.824C205.58 28.544 205.232 29.564 205.232 30.884C205.232 32.18 205.58 33.212 206.276 33.98C206.972 34.724 207.848 35.096 208.904 35.096C209.936 35.096 210.8 34.724 211.496 33.98C212.216 33.236 212.576 32.204 212.576 30.884Z" fill="#31135E"/>
<path d="M10.1667 24.8V27.88C10.1667 28.272 10.1667 28.4681 10.0758 28.6178C9.99594 28.7495 9.86846 28.8566 9.71166 28.9237C9.5334 29 9.30004 29 8.83333 29H5.66667C5.19996 29 4.9666 29 4.78834 28.9237C4.63154 28.8566 4.50406 28.7495 4.42416 28.6178C4.33333 28.4681 4.33333 28.272 4.33333 27.88V24.8M27.6667 24.8V27.88C27.6667 28.272 27.6667 28.4681 27.5758 28.6178C27.4959 28.7495 27.3685 28.8566 27.2117 28.9237C27.0334 29 26.8 29 26.3333 29H23.1667C22.7 29 22.4666 29 22.2883 28.9237C22.1315 28.8566 22.0041 28.7495 21.9242 28.6178C21.8333 28.4681 21.8333 28.272 21.8333 27.88V24.8M1 15H31M1 5.9H31M6.83333 19.9H9.33333M22.6667 19.9H25.1667M9 24.8H23C25.8003 24.8 27.2004 24.8 28.27 24.3422C29.2108 23.9396 29.9757 23.297 30.455 22.5068C31 21.6083 31 20.4322 31 18.08V7.72C31 5.36778 31 4.19167 30.455 3.29324C29.9757 2.50296 29.2108 1.86044 28.27 1.45777C27.2004 1 25.8003 1 23 1H9C6.19974 1 4.79961 1 3.73005 1.45777C2.78924 1.86044 2.02433 2.50296 1.54497 3.29324C1 4.19167 1 5.36778 1 7.72V18.08C1 20.4322 1 21.6083 1.54497 22.5068C2.02433 23.297 2.78924 23.9396 3.73005 24.3422C4.79961 24.8 6.19974 24.8 9 24.8Z" stroke="#31135E" stroke-width="2" stroke-linecap="round" stroke-linejoin="round"/>
</svg>
