<svg width="32" height="30" viewBox="0 0 32 30" fill="none" xmlns="http://www.w3.org/2000/svg">
<path d="M10.1667 24.8V27.88C10.1667 28.272 10.1667 28.4681 10.0758 28.6178C9.99594 28.7495 9.86846 28.8566 9.71166 28.9237C9.5334 29 9.30004 29 8.83333 29H5.66667C5.19996 29 4.9666 29 4.78834 28.9237C4.63154 28.8566 4.50406 28.7495 4.42416 28.6178C4.33333 28.4681 4.33333 28.272 4.33333 27.88V24.8M27.6667 24.8V27.88C27.6667 28.272 27.6667 28.4681 27.5758 28.6178C27.4959 28.7495 27.3685 28.8566 27.2117 28.9237C27.0334 29 26.8 29 26.3333 29H23.1667C22.7 29 22.4666 29 22.2883 28.9237C22.1315 28.8566 22.0041 28.7495 21.9242 28.6178C21.8333 28.4681 21.8333 28.272 21.8333 27.88V24.8M1 15H31M1 5.9H31M6.83333 19.9H9.33333M22.6667 19.9H25.1667M9 24.8H23C25.8003 24.8 27.2004 24.8 28.27 24.3422C29.2108 23.9396 29.9757 23.297 30.455 22.5068C31 21.6083 31 20.4322 31 18.08V7.72C31 5.36778 31 4.19167 30.455 3.29324C29.9757 2.50296 29.2108 1.86044 28.27 1.45777C27.2004 1 25.8003 1 23 1H9C6.19974 1 4.79961 1 3.73005 1.45777C2.78924 1.86044 2.02433 2.50296 1.54497 3.29324C1 4.19167 1 5.36778 1 7.72V18.08C1 20.4322 1 21.6083 1.54497 22.5068C2.02433 23.297 2.78924 23.9396 3.73005 24.3422C4.79961 24.8 6.19974 24.8 9 24.8Z" stroke="#31135E" stroke-width="2" stroke-linecap="round" stroke-linejoin="round"/>
</svg>
