<svg width="42" height="30" viewBox="0 0 42 30" fill="none" xmlns="http://www.w3.org/2000/svg">
<path fill-rule="evenodd" clip-rule="evenodd" d="M6.29301 0.292787C6.48054 0.105316 6.73485 0 7.00001 0C7.26517 0 7.51948 0.105316 7.70701 0.292787L12.147 4.73279C14.9584 3.58889 17.9648 3.00039 21 2.99979C29.866 2.99979 36.434 7.96979 39.874 11.8638C40.6444 12.7267 41.0702 13.843 41.0702 14.9998C41.0702 16.1566 40.6444 17.2729 39.874 18.1358C37.5938 20.7025 34.8546 22.8211 31.797 24.3828L35.707 28.2928C35.8892 28.4814 35.99 28.734 35.9877 28.9962C35.9854 29.2584 35.8802 29.5092 35.6948 29.6946C35.5094 29.88 35.2586 29.9852 34.9964 29.9875C34.7342 29.9897 34.4816 29.8889 34.293 29.7068L29.853 25.2668C27.0416 26.4107 24.0352 26.9992 21 26.9998C12.134 26.9998 5.56601 22.0298 2.12601 18.1358C1.35565 17.2729 0.929871 16.1566 0.929871 14.9998C0.929871 13.843 1.35565 12.7267 2.12601 11.8638C4.40621 9.29704 7.14544 7.17843 10.203 5.61679L6.29301 1.70679C6.10554 1.51926 6.00022 1.26495 6.00022 0.999786C6.00022 0.734622 6.10554 0.480314 6.29301 0.292787ZM7.02601 9.99979C7.96821 9.26378 8.96136 8.59544 9.99801 7.99979H12.586L14.586 9.99979H7.02601ZM4.77601 11.9748C4.35901 12.3848 3.97601 12.7918 3.62601 13.1878C3.41291 13.4275 3.24275 13.7022 3.12301 13.9998H18.586L16.586 11.9998H5.00001C4.92301 11.9998 4.84801 11.9908 4.77601 11.9748ZM3.62501 16.8118C3.41191 16.572 3.24175 16.2974 3.12201 15.9998H20.585L22.585 17.9998H5.00001C4.92301 17.9998 4.84701 18.0088 4.77501 18.0248C4.35901 17.6148 3.97501 17.2078 3.62501 16.8118ZM7.02501 19.9998C7.92401 20.7018 8.91701 21.3798 9.99701 21.9998H26.586L24.586 19.9998H7.02501ZM21 24.9998C18.67 24.9998 16.51 24.6228 14.536 23.9998H27.464C25.3734 24.6625 23.1932 24.9998 21 24.9998ZM25.89 18.4768L28.743 21.3288C31.97 17.3908 31.734 11.5688 28.049 7.90679C24.379 4.25879 18.589 4.04679 14.671 7.25679L17.523 10.1088C18.5379 9.38542 19.7537 8.99765 21 8.99979C21.926 8.99979 22.803 9.20979 23.587 9.58479C23.396 9.76928 23.2436 9.98997 23.1388 10.234C23.034 10.478 22.9788 10.7404 22.9765 11.006C22.9742 11.2715 23.0248 11.5349 23.1254 11.7807C23.2259 12.0265 23.3744 12.2498 23.5622 12.4376C23.75 12.6254 23.9733 12.7739 24.2191 12.8744C24.4649 12.975 24.7283 13.0256 24.9938 13.0233C25.2594 13.021 25.5218 12.9658 25.7658 12.861C26.0098 12.7562 26.2305 12.6038 26.415 12.4128C26.79 13.1968 27 14.0728 27 14.9998C27 16.2958 26.59 17.4958 25.89 18.4768ZM30.163 22.7488L30.301 22.8868C33.809 21.2338 36.551 18.8768 38.375 16.8118C38.8226 16.3144 39.0702 15.6689 39.0702 14.9998C39.0702 14.3307 38.8226 13.6852 38.375 13.1878C36.475 11.0378 33.583 8.57279 29.866 6.91279C33.941 11.3728 34.044 18.1698 30.163 22.7488Z" fill="#491D8B"/>
</svg>
