<svg width="222" height="77" viewBox="0 0 222 77" fill="none" xmlns="http://www.w3.org/2000/svg">
<path d="M42.132 36.9288V42.5448H35.364V62.3088H28.308V42.5448H21.612V36.9288H42.132ZM51.7986 45.6768C52.5906 44.5248 53.5506 43.6128 54.6786 42.9408C55.8066 42.2688 57.0186 41.9328 58.3146 41.9328V49.4568H56.3346C54.7986 49.4568 53.6586 49.7568 52.9146 50.3568C52.1706 50.9568 51.7986 52.0008 51.7986 53.4888V62.3088H44.7426V42.1128H51.7986V45.6768ZM59.6921 52.1928C59.6921 50.1048 60.0641 48.2808 60.8081 46.7208C61.5761 45.1608 62.6081 43.9608 63.9041 43.1208C65.2241 42.2808 66.6881 41.8608 68.2961 41.8608C69.6881 41.8608 70.8881 42.1368 71.8961 42.6888C72.9041 43.2408 73.6841 43.9848 74.2361 44.9208V42.1128H81.2921V62.3088H74.2361V59.5008C73.6841 60.4368 72.8921 61.1808 71.8601 61.7328C70.8521 62.2848 69.6641 62.5608 68.2961 62.5608C66.6881 62.5608 65.2241 62.1408 63.9041 61.3008C62.6081 60.4608 61.5761 59.2608 60.8081 57.7008C60.0641 56.1168 59.6921 54.2808 59.6921 52.1928ZM74.2361 52.1928C74.2361 50.8968 73.8761 49.8768 73.1561 49.1328C72.4601 48.3888 71.5961 48.0168 70.5641 48.0168C69.5081 48.0168 68.6321 48.3888 67.9361 49.1328C67.2401 49.8528 66.8921 50.8728 66.8921 52.1928C66.8921 53.4888 67.2401 54.5208 67.9361 55.2888C68.6321 56.0328 69.5081 56.4048 70.5641 56.4048C71.5961 56.4048 72.4601 56.0328 73.1561 55.2888C73.8761 54.5448 74.2361 53.5128 74.2361 52.1928ZM98.5249 41.9328C100.853 41.9328 102.701 42.7128 104.069 44.2728C105.437 45.8088 106.121 47.8968 106.121 50.5368V62.3088H99.0649V51.4728C99.0649 50.3208 98.7649 49.4208 98.1649 48.7728C97.5649 48.1008 96.7609 47.7648 95.7529 47.7648C94.6969 47.7648 93.8689 48.1008 93.2689 48.7728C92.6689 49.4208 92.3689 50.3208 92.3689 51.4728V62.3088H85.3129V42.1128H92.3689V44.9928C92.9929 44.0808 93.8329 43.3488 94.8889 42.7968C95.9449 42.2208 97.1569 41.9328 98.5249 41.9328ZM118.597 62.5608C116.773 62.5608 115.141 62.2608 113.701 61.6608C112.285 61.0368 111.157 60.1968 110.317 59.1408C109.501 58.0608 109.045 56.8488 108.949 55.5048H115.789C115.885 56.1528 116.185 56.6568 116.689 57.0168C117.193 57.3768 117.817 57.5568 118.561 57.5568C119.137 57.5568 119.593 57.4368 119.929 57.1968C120.265 56.9568 120.433 56.6448 120.433 56.2608C120.433 55.7568 120.157 55.3848 119.605 55.1448C119.053 54.9048 118.141 54.6408 116.869 54.3528C115.429 54.0648 114.229 53.7408 113.269 53.3808C112.309 53.0208 111.469 52.4328 110.749 51.6168C110.053 50.8008 109.705 49.6968 109.705 48.3048C109.705 47.1048 110.029 46.0248 110.677 45.0648C111.325 44.0808 112.273 43.3008 113.521 42.7248C114.793 42.1488 116.317 41.8608 118.093 41.8608C120.733 41.8608 122.809 42.5088 124.321 43.8048C125.833 45.1008 126.709 46.8048 126.949 48.9168H120.577C120.457 48.2688 120.169 47.7768 119.713 47.4408C119.281 47.0808 118.693 46.9008 117.949 46.9008C117.373 46.9008 116.929 47.0088 116.617 47.2248C116.329 47.4408 116.185 47.7408 116.185 48.1248C116.185 48.6048 116.461 48.9768 117.013 49.2408C117.565 49.4808 118.453 49.7328 119.677 49.9968C121.141 50.3088 122.353 50.6568 123.313 51.0408C124.297 51.4248 125.149 52.0488 125.869 52.9128C126.613 53.7528 126.985 54.9048 126.985 56.3688C126.985 57.5448 126.637 58.6008 125.941 59.5368C125.269 60.4728 124.297 61.2168 123.025 61.7688C121.777 62.2968 120.301 62.5608 118.597 62.5608ZM129.302 52.1928C129.302 50.1048 129.734 48.2808 130.598 46.7208C131.462 45.1608 132.662 43.9608 134.198 43.1208C135.758 42.2808 137.534 41.8608 139.526 41.8608C142.094 41.8608 144.254 42.5688 146.006 43.9848C147.758 45.3768 148.886 47.3328 149.39 49.8528H141.902C141.47 48.5328 140.63 47.8728 139.382 47.8728C138.494 47.8728 137.786 48.2448 137.258 48.9888C136.754 49.7088 136.502 50.7768 136.502 52.1928C136.502 53.6088 136.754 54.6888 137.258 55.4328C137.786 56.1768 138.494 56.5488 139.382 56.5488C140.654 56.5488 141.494 55.8888 141.902 54.5688H149.39C148.886 57.0648 147.758 59.0208 146.006 60.4368C144.254 61.8528 142.094 62.5608 139.526 62.5608C137.534 62.5608 135.758 62.1408 134.198 61.3008C132.662 60.4608 131.462 59.2608 130.598 57.7008C129.734 56.1408 129.302 54.3048 129.302 52.1928ZM171.617 51.9768C171.617 52.5288 171.581 53.0808 171.509 53.6328H158.153C158.225 54.7368 158.525 55.5648 159.053 56.1168C159.605 56.6448 160.301 56.9088 161.141 56.9088C162.317 56.9088 163.157 56.3808 163.661 55.3248H171.185C170.873 56.7168 170.261 57.9648 169.349 59.0688C168.461 60.1488 167.333 61.0008 165.965 61.6248C164.597 62.2488 163.085 62.5608 161.429 62.5608C159.437 62.5608 157.661 62.1408 156.101 61.3008C154.565 60.4608 153.353 59.2608 152.465 57.7008C151.601 56.1408 151.169 54.3048 151.169 52.1928C151.169 50.0808 151.601 48.2568 152.465 46.7208C153.329 45.1608 154.529 43.9608 156.065 43.1208C157.625 42.2808 159.413 41.8608 161.429 41.8608C163.421 41.8608 165.185 42.2688 166.721 43.0848C168.257 43.9008 169.457 45.0768 170.321 46.6128C171.185 48.1248 171.617 49.9128 171.617 51.9768ZM164.417 50.2128C164.417 49.3488 164.129 48.6768 163.553 48.1968C162.977 47.6928 162.257 47.4408 161.393 47.4408C160.529 47.4408 159.821 47.6808 159.269 48.1608C158.717 48.6168 158.357 49.3008 158.189 50.2128H164.417ZM187.716 41.9328C190.044 41.9328 191.892 42.7128 193.26 44.2728C194.628 45.8088 195.312 47.8968 195.312 50.5368V62.3088H188.256V51.4728C188.256 50.3208 187.956 49.4208 187.356 48.7728C186.756 48.1008 185.952 47.7648 184.944 47.7648C183.888 47.7648 183.06 48.1008 182.46 48.7728C181.86 49.4208 181.56 50.3208 181.56 51.4728V62.3088H174.504V42.1128H181.56V44.9928C182.184 44.0808 183.024 43.3488 184.08 42.7968C185.136 42.2208 186.348 41.9328 187.716 41.9328ZM198.032 52.1928C198.032 50.1048 198.404 48.2808 199.148 46.7208C199.916 45.1608 200.96 43.9608 202.28 43.1208C203.6 42.2808 205.064 41.8608 206.672 41.8608C207.968 41.8608 209.12 42.1368 210.128 42.6888C211.16 43.2168 211.964 43.9488 212.54 44.8848V35.6688H219.632V62.3088H212.54V59.5008C211.988 60.4368 211.208 61.1808 210.2 61.7328C209.192 62.2848 208.004 62.5608 206.636 62.5608C205.028 62.5608 203.564 62.1408 202.244 61.3008C200.948 60.4608 199.916 59.2608 199.148 57.7008C198.404 56.1168 198.032 54.2808 198.032 52.1928ZM212.576 52.1928C212.576 50.8968 212.216 49.8768 211.496 49.1328C210.8 48.3888 209.936 48.0168 208.904 48.0168C207.848 48.0168 206.972 48.3888 206.276 49.1328C205.58 49.8528 205.232 50.8728 205.232 52.1928C205.232 53.4888 205.58 54.5208 206.276 55.2888C206.972 56.0328 207.848 56.4048 208.904 56.4048C209.936 56.4048 210.8 56.0328 211.496 55.2888C212.216 54.5448 212.576 53.5128 212.576 52.1928Z" fill="#F6F2FF"/>
<path d="M10.1667 23.4689V26.3766C10.1667 26.7468 10.1667 26.9318 10.0758 27.0732C9.99594 27.1975 9.86846 27.2986 9.71166 27.362C9.5334 27.434 9.30004 27.434 8.83333 27.434H5.66667C5.19996 27.434 4.9666 27.434 4.78834 27.362C4.63154 27.2986 4.50406 27.1975 4.42416 27.0732C4.33333 26.9318 4.33333 26.7468 4.33333 26.3766V23.4689M27.6667 23.4689V26.3766C27.6667 26.7468 27.6667 26.9318 27.5758 27.0732C27.4959 27.1975 27.3685 27.2986 27.2117 27.362C27.0334 27.434 26.8 27.434 26.3333 27.434H23.1667C22.7 27.434 22.4666 27.434 22.2883 27.362C22.1315 27.2986 22.0041 27.1975 21.9242 27.0732C21.8333 26.9318 21.8333 26.7468 21.8333 26.3766V23.4689M1 14.217H31M1 5.62595H31M6.83333 18.843H9.33333M22.6667 18.843H25.1667M9 23.4689H23C25.8003 23.4689 27.2004 23.4689 28.27 23.0367C29.2108 22.6566 29.9757 22.05 30.455 21.3039C31 20.4557 31 19.3454 31 17.1247V7.34416C31 5.1235 31 4.01316 30.455 3.16498C29.9757 2.4189 29.2108 1.81232 28.27 1.43217C27.2004 1 25.8003 1 23 1H9C6.19974 1 4.79961 1 3.73005 1.43217C2.78924 1.81232 2.02433 2.4189 1.54497 3.16498C1 4.01316 1 5.1235 1 7.34416V17.1247C1 19.3454 1 20.4557 1.54497 21.3039C2.02433 22.05 2.78924 22.6566 3.73005 23.0367C4.79961 23.4689 6.19974 23.4689 9 23.4689Z" stroke="#F6F2FF" stroke-width="2" stroke-linecap="round" stroke-linejoin="round"/>
</svg>
