<svg width="39" height="40" viewBox="0 0 39 40" fill="none" xmlns="http://www.w3.org/2000/svg">
<rect width="38.6744" height="40" rx="4" fill="#FEFEFE"/>
<path d="M28.3047 14.6531C27.6344 14.961 26.9144 15.1681 26.1586 15.2616C26.9305 14.7835 27.5223 14.0265 27.8011 13.1238C27.0797 13.5665 26.2798 13.8881 25.4281 14.062C24.7466 13.3107 23.7758 12.8413 22.7014 12.8413C20.638 12.8413 18.9654 14.5719 18.9654 16.7054C18.9654 17.0082 18.999 17.3037 19.062 17.5855C15.9571 17.4247 13.2045 15.886 11.361 13.5476C11.0402 14.1185 10.856 14.782 10.856 15.4912C10.856 16.8314 11.5151 18.0144 12.5174 18.7069C11.9052 18.6867 11.3288 18.5128 10.8252 18.2237C10.8252 18.2404 10.8252 18.2556 10.8252 18.2723C10.8252 20.1449 12.1126 21.7068 13.8223 22.061C13.5092 22.1494 13.1786 22.1965 12.8375 22.1965C12.5972 22.1965 12.3626 22.1718 12.135 22.1276C12.6105 23.6627 13.9904 24.7805 15.6251 24.8116C14.3469 25.8483 12.7359 26.4662 10.9849 26.4662C10.6837 26.4662 10.386 26.4481 10.0933 26.4119C11.7469 27.5079 13.7102 28.1476 15.8205 28.1476C22.693 28.1476 26.45 22.2595 26.45 17.1531C26.45 16.9857 26.4465 16.8191 26.4395 16.6532C27.17 16.1077 27.8039 15.4275 28.3047 14.6531Z" fill="#111827"/>
</svg>
